<svg xmlns="http://www.w3.org/2000/svg" viewBox="0 0 128 160" role="img" aria-label="10_puppy_heart.svg"><defs><linearGradient id="g" x1="0" y1="0" x2="0" y2="1"><stop stop-color="#fff" stop-opacity=".18"/><stop offset="1" stop-color="#000" stop-opacity=".12"/></linearGradient><radialGradient id="e" cx=".35" cy=".25" r=".75"><stop stop-color="#444"/><stop offset=".35" stop-color="#111"/><stop offset="1"/></radialGradient></defs><ellipse cx="64" cy="146" rx="38" ry="8" opacity=".12"/><path d="M29 45q-18-6-15 16 5 12 18 7Z" fill="#f5f3ef"/><path d="M99 45q18-6 15 16-5 12-18 7Z" fill="#f5f3ef"/><path d="M20 52q-3 10 6 15" stroke="#d92d2d" stroke-width="7"/><path d="M108 52q3 10-6 15" stroke="#d92d2d" stroke-width="7"/><ellipse cx="64" cy="63" rx="42" ry="39" fill="#f5f3ef"/><circle cx="44" cy="60" r="15" fill="#a24a88"/><circle cx="44" cy="60" r="11" fill="url(#e)"/><circle cx="40" cy="55" r="3.5" fill="#fff"/><circle cx="47" cy="64" r="1.8" fill="#fff" opacity=".65"/><circle cx="84" cy="60" r="15" fill="#a24a88"/><circle cx="84" cy="60" r="11" fill="url(#e)"/><circle cx="80" cy="55" r="3.5" fill="#fff"/><circle cx="87" cy="64" r="1.8" fill="#fff" opacity=".65"/><circle cx="64" cy="73" r="4" fill="#191919"/><ellipse cx="64" cy="121" rx="28" ry="31" fill="#f5f3ef"/><ellipse cx="45" cy="145" rx="17" ry="10" fill="#f5f3ef"/><ellipse cx="83" cy="145" rx="17" ry="10" fill="#f5f3ef"/><path d="M64 132C42 119 43 105 53 104c7-1 11 5 11 5s4-6 11-5c10 1 11 15-11 28Z" fill="#e51f2b"/></svg>