<svg xmlns="http://www.w3.org/2000/svg" viewBox="0 0 128 160" role="img" aria-label="03_rainbow_monkey.svg"><defs><linearGradient id="g" x1="0" y1="0" x2="0" y2="1"><stop stop-color="#fff" stop-opacity=".18"/><stop offset="1" stop-color="#000" stop-opacity=".12"/></linearGradient><radialGradient id="e" cx=".35" cy=".25" r=".75"><stop stop-color="#444"/><stop offset=".35" stop-color="#111"/><stop offset="1"/></radialGradient></defs><ellipse cx="64" cy="146" rx="38" ry="8" opacity=".12"/><circle cx="24" cy="47" r="15" fill="#f28ba5"/><circle cx="104" cy="47" r="15" fill="#f28ba5"/><path d="M29 31q35-23 70 0l8 18q-8 50-43 52Q29 99 21 49Z" fill="#7ccf69"/><path d="M28 30q8-12 18-7t15-5q8-7 16 1t20 4q8-3 13 8" fill="none" stroke="#ff78a8" stroke-width="8"/><path d="M22 43q9-8 16-1m54 0q8-8 16 1" fill="none" stroke="#6fc8ff" stroke-width="7"/><ellipse cx="64" cy="62" rx="33" ry="29" fill="#f1d4c4"/><circle cx="48" cy="58" r="15" fill="#8d5ab5"/><circle cx="48" cy="58" r="11" fill="url(#e)"/><circle cx="44" cy="53" r="3.5" fill="#fff"/><circle cx="51" cy="62" r="1.8" fill="#fff" opacity=".65"/><circle cx="80" cy="58" r="15" fill="#8d5ab5"/><circle cx="80" cy="58" r="11" fill="url(#e)"/><circle cx="76" cy="53" r="3.5" fill="#fff"/><circle cx="83" cy="62" r="1.8" fill="#fff" opacity=".65"/><circle cx="64" cy="72" r="3" fill="#d96a88"/><path d="M64 75v5m0 0q-6 6-11 0m11 0q6 6 11 0" fill="none" stroke="#9e5266" stroke-width="2"/><ellipse cx="64" cy="119" rx="28" ry="31" fill="#69c9bd"/><path d="M43 102h42" stroke="#ff7ea7" stroke-width="8"/><path d="M42 116h44" stroke="#f8bf54" stroke-width="8"/><path d="M47 130h34" stroke="#7b71dd" stroke-width="8"/><ellipse cx="45" cy="145" rx="16" ry="9" fill="#f28ba5"/><ellipse cx="83" cy="145" rx="16" ry="9" fill="#f28ba5"/></svg>