<svg xmlns="http://www.w3.org/2000/svg" viewBox="0 0 128 160" role="img" aria-label="01_frog.svg"><defs><linearGradient id="g" x1="0" y1="0" x2="0" y2="1"><stop stop-color="#fff" stop-opacity=".18"/><stop offset="1" stop-color="#000" stop-opacity=".12"/></linearGradient><radialGradient id="e" cx=".35" cy=".25" r=".75"><stop stop-color="#444"/><stop offset=".35" stop-color="#111"/><stop offset="1"/></radialGradient></defs><ellipse cx="64" cy="145" rx="38" ry="8" opacity=".12"/><ellipse cx="64" cy="93" rx="43" ry="42" fill="#3f7f2c" stroke="#28561d" stroke-width="2"/><ellipse cx="41" cy="46" rx="19" ry="18" fill="#82b94f"/><ellipse cx="87" cy="46" rx="19" ry="18" fill="#82b94f"/><circle cx="41" cy="47" r="15" fill="#d5b51f"/><circle cx="41" cy="47" r="11" fill="url(#e)"/><circle cx="37" cy="42" r="3.5" fill="#fff"/><circle cx="44" cy="51" r="1.8" fill="#fff" opacity=".65"/><circle cx="87" cy="47" r="15" fill="#d5b51f"/><circle cx="87" cy="47" r="11" fill="url(#e)"/><circle cx="83" cy="42" r="3.5" fill="#fff"/><circle cx="90" cy="51" r="1.8" fill="#fff" opacity=".65"/><ellipse cx="64" cy="91" rx="38" ry="29" fill="#477f30"/><path d="M29 95q35 29 70 0" fill="none" stroke="#f2d875" stroke-width="8" stroke-linecap="round"/><path d="M42 94q22 16 44 0" fill="none" stroke="#1d3e18" stroke-width="2"/><ellipse cx="36" cy="126" rx="18" ry="23" fill="#4f9136"/><ellipse cx="92" cy="126" rx="18" ry="23" fill="#4f9136"/><ellipse cx="28" cy="118" rx="12" ry="20" transform="rotate(22 28 118)" fill="#4f9136"/><ellipse cx="100" cy="118" rx="12" ry="20" transform="rotate(-22 100 118)" fill="#4f9136"/></svg>