<svg xmlns="http://www.w3.org/2000/svg" viewBox="0 0 128 160" role="img" aria-label="07_husky.svg"><defs><linearGradient id="g" x1="0" y1="0" x2="0" y2="1"><stop stop-color="#fff" stop-opacity=".18"/><stop offset="1" stop-color="#000" stop-opacity=".12"/></linearGradient><radialGradient id="e" cx=".35" cy=".25" r=".75"><stop stop-color="#444"/><stop offset=".35" stop-color="#111"/><stop offset="1"/></radialGradient></defs><ellipse cx="64" cy="146" rx="38" ry="8" opacity=".12"/><path d="M29 43 23 10l27 22Z" fill="#71777d"/><path d="M99 43 105 10 78 32Z" fill="#71777d"/><path d="m31 32-4-15 17 12Z" fill="#f2eee6"/><path d="m97 32 4-15-17 12Z" fill="#f2eee6"/><ellipse cx="64" cy="61" rx="43" ry="39" fill="#70777d"/><path d="M30 46q13-18 26-7l8 11 8-11q13-11 26 7-8 20-17 25H47Q38 66 30 46" fill="#f5f2eb"/><circle cx="43" cy="59" r="15" fill="#c99b1d"/><circle cx="43" cy="59" r="11" fill="url(#e)"/><circle cx="39" cy="54" r="3.5" fill="#fff"/><circle cx="46" cy="63" r="1.8" fill="#fff" opacity=".65"/><circle cx="85" cy="59" r="15" fill="#c99b1d"/><circle cx="85" cy="59" r="11" fill="url(#e)"/><circle cx="81" cy="54" r="3.5" fill="#fff"/><circle cx="88" cy="63" r="1.8" fill="#fff" opacity=".65"/><ellipse cx="64" cy="78" rx="21" ry="16" fill="#f5f2eb"/><path d="M56 72q8-7 16 0-2 7-8 7t-8-7"/><ellipse cx="64" cy="121" rx="29" ry="31" fill="#70777d"/><path d="M48 98q16 10 32 0l4 30q-4 18-20 19-16-1-20-19Z" fill="#f5f2eb"/><ellipse cx="44" cy="145" rx="17" ry="10" fill="#f5f2eb"/><ellipse cx="84" cy="145" rx="17" ry="10" fill="#f5f2eb"/></svg>