<svg xmlns="http://www.w3.org/2000/svg" viewBox="0 0 128 160" role="img" aria-label="02_leopard.svg"><defs><linearGradient id="g" x1="0" y1="0" x2="0" y2="1"><stop stop-color="#fff" stop-opacity=".18"/><stop offset="1" stop-color="#000" stop-opacity=".12"/></linearGradient><radialGradient id="e" cx=".35" cy=".25" r=".75"><stop stop-color="#444"/><stop offset=".35" stop-color="#111"/><stop offset="1"/></radialGradient></defs><ellipse cx="64" cy="146" rx="39" ry="8" opacity=".12"/><circle cx="29" cy="29" r="15" fill="#d9963e"/><circle cx="99" cy="29" r="15" fill="#d9963e"/><ellipse cx="64" cy="61" rx="43" ry="39" fill="#e4aa57" stroke="#8b5525" stroke-width="2"/><ellipse cx="35" cy="31" rx="7" ry="4" transform="rotate(-20 35 31)" fill="#2b1c16"/><ellipse cx="61" cy="25" rx="6" ry="4" transform="rotate(12 61 25)" fill="#2b1c16"/><ellipse cx="89" cy="33" rx="7" ry="4" transform="rotate(25 89 33)" fill="#2b1c16"/><ellipse cx="26" cy="62" rx="6" ry="4" transform="rotate(30 26 62)" fill="#2b1c16"/><ellipse cx="101" cy="65" rx="6" ry="4" transform="rotate(-25 101 65)" fill="#2b1c16"/><ellipse cx="31" cy="104" rx="7" ry="4" transform="rotate(25 31 104)" fill="#2b1c16"/><ellipse cx="46" cy="126" rx="6" ry="4" transform="rotate(-15 46 126)" fill="#2b1c16"/><ellipse cx="82" cy="111" rx="7" ry="4" transform="rotate(30 82 111)" fill="#2b1c16"/><ellipse cx="96" cy="132" rx="6" ry="4" transform="rotate(-20 96 132)" fill="#2b1c16"/><ellipse cx="61" cy="97" rx="5" ry="3" transform="rotate(0 61 97)" fill="#2b1c16"/><circle cx="43" cy="58" r="15" fill="#b77716"/><circle cx="43" cy="58" r="11" fill="url(#e)"/><circle cx="39" cy="53" r="3.5" fill="#fff"/><circle cx="46" cy="62" r="1.8" fill="#fff" opacity=".65"/><circle cx="85" cy="58" r="15" fill="#b77716"/><circle cx="85" cy="58" r="11" fill="url(#e)"/><circle cx="81" cy="53" r="3.5" fill="#fff"/><circle cx="88" cy="62" r="1.8" fill="#fff" opacity=".65"/><ellipse cx="64" cy="77" rx="20" ry="15" fill="#f3dfbb"/><path d="M56 72q8-7 16 0-2 7-8 7t-8-7" fill="#2a211d"/><path d="M64 79v6m0 0q-7 7-12 0m12 0q7 7 12 0" fill="none" stroke="#2a211d" stroke-width="2"/><ellipse cx="64" cy="120" rx="29" ry="31" fill="#e4aa57"/><path d="M50 96q14 8 28 0l5 31q-4 18-19 20-15-2-19-20Z" fill="#f3dfbb"/><ellipse cx="39" cy="123" rx="12" ry="24" fill="#e4aa57"/><ellipse cx="89" cy="123" rx="12" ry="24" fill="#e4aa57"/></svg>