<svg xmlns="http://www.w3.org/2000/svg" viewBox="0 0 128 160" role="img" aria-label="04_rottweiler.svg"><defs><linearGradient id="g" x1="0" y1="0" x2="0" y2="1"><stop stop-color="#fff" stop-opacity=".18"/><stop offset="1" stop-color="#000" stop-opacity=".12"/></linearGradient><radialGradient id="e" cx=".35" cy=".25" r=".75"><stop stop-color="#444"/><stop offset=".35" stop-color="#111"/><stop offset="1"/></radialGradient></defs><ellipse cx="64" cy="146" rx="38" ry="8" opacity=".12"/><path d="M22 39q-9-18 7-21 12 2 17 18Z" fill="#191919"/><path d="M106 39q9-18-7-21-12 2-17 18Z" fill="#191919"/><ellipse cx="64" cy="61" rx="43" ry="40" fill="#171717"/><ellipse cx="42" cy="39" rx="9" ry="6" fill="#d8892f"/><ellipse cx="86" cy="39" rx="9" ry="6" fill="#d8892f"/><circle cx="43" cy="59" r="15" fill="#4fc4e6"/><circle cx="43" cy="59" r="11" fill="url(#e)"/><circle cx="39" cy="54" r="3.5" fill="#fff"/><circle cx="46" cy="63" r="1.8" fill="#fff" opacity=".65"/><circle cx="85" cy="59" r="15" fill="#4fc4e6"/><circle cx="85" cy="59" r="11" fill="url(#e)"/><circle cx="81" cy="54" r="3.5" fill="#fff"/><circle cx="88" cy="63" r="1.8" fill="#fff" opacity=".65"/><ellipse cx="64" cy="78" rx="21" ry="16" fill="#d8892f"/><path d="M56 72q8-7 16 0-2 7-8 7t-8-7"/><path d="M64 79v6m0 0q-7 7-12 0m12 0q7 7 12 0" fill="none" stroke="#111" stroke-width="2"/><ellipse cx="64" cy="121" rx="29" ry="31" fill="#171717"/><ellipse cx="43" cy="145" rx="17" ry="10" fill="#d8892f"/><ellipse cx="85" cy="145" rx="17" ry="10" fill="#d8892f"/><path d="M40 103q8 11 15 13m33-13q-8 11-15 13" stroke="#d8892f" stroke-width="8"/></svg>